<?xml version="1.0" encoding="utf-8"?>
<!-- Generator: Adobe Illustrator 20.1.0, SVG Export Plug-In . SVG Version: 6.00 Build 0)  -->
<svg version="1.1" id="Layer_1" xmlns="http://www.w3.org/2000/svg" xmlns:xlink="http://www.w3.org/1999/xlink" x="0px" y="0px"
	 viewBox="0 0 465 465" style="enable-background:new 0 0 465 465;" xml:space="preserve">
<style type="text/css">
	.st0{fill:#F7991C;}
	.st1{fill:#B6B6B7;}
	.st2{fill:#F7941D;}
	.st3{fill:#373737;}
	.st4{fill:#AAA335;}
	.st5{fill:url(#SVGID_1_);}
	.st6{fill:url(#SVGID_2_);}
	.st7{fill:url(#SVGID_3_);}
	.st8{fill:#C0A02F;}
	.st9{fill:#F48B1F;}
</style>
<g>
	<path class="st0" d="M148.9,251.9c0.4,0,0.7-0.1,1,0.3C149.5,252.2,149.1,252.2,148.9,251.9z"/>
	<path class="st1" d="M301.2,251c0.1-0.2,0.3-0.3,0.6-0.3C301.7,250.9,301.4,251,301.2,251z"/>
	<path class="st1" d="M300.6,251.3c0.1-0.3,0.3-0.3,0.6-0.3C301.1,251.2,300.8,251.3,300.6,251.3z"/>
	<path class="st1" d="M301.8,250.7c0.1-0.1,0.2-0.2,0.3-0.3C302,250.5,301.9,250.6,301.8,250.7z"/>
	<g>
		<path class="st2" d="M442.5,328.3c0-4.8,0-9.4,0-13.9c0-6.6,0-13.2,0-19.9c0-0.3,0-0.6,0-0.9c0-1.3,0-1.3-1.2-1.3c-2,0-4,0-6,0
			c-0.4,0-0.9,0.2-1.1-0.2c-0.2-0.5-0.2-1.1,0-1.6c0.1-0.2,0.3-0.3,0.5-0.3c0.3,0,0.5,0,0.8,0c5.8,0,11.6,0,17.4,0
			c1.3,0,1.2,0,1.3,1.2c0,0.7-0.3,1-1,0.9c-2.2,0-4.3,0-6.5,0c-1.3,0-1.3,0-1.3,1.3c0,7.8,0,15.6,0,23.5c0,10.4,0,20.9,0,31.3
			c0,1.8,0.3,1.6-1.7,1.7c-0.9,0-1.2-0.4-1.6-1c-4.6-6.9-9.2-13.9-13.8-20.8c-7.2-10.8-14.4-21.7-21.7-32.5
			c-0.3-0.4-0.5-0.9-1.2-1.4c0,0.7,0,1.2,0,1.7c0,16.3,0,32.6,0,48.9c0,0.3,0,0.5,0,0.8c0,1.1,0,1.1,1.1,1.1c2.1,0,4.2,0,6.3,0
			c1.2,0,1.6,0.6,1.3,1.8c-0.1,0.3-0.3,0.4-0.5,0.4c-0.3,0-0.7,0-1.1,0c-5.7,0-11.3,0-17,0c-0.2,0-0.3,0-0.5,0
			c-0.3,0-0.8,0.1-0.9-0.2c-0.2-0.6-0.2-1.2,0-1.8c0.1-0.4,0.6-0.2,1-0.2c2.1,0,4.1,0,6.2,0c1.6,0,1.4,0,1.4-1.5
			c0-17.1,0-34.2,0-51.3c0-0.2,0-0.4,0-0.6c0.1-0.8-0.3-1.1-1-1c-1.8,0-3.6,0-5.4,0c-0.4,0-0.7,0-1.1,0c-1.2,0-1.2,0-1.2-1.2
			c0-1,0-1,1-1c2.6,0,5.1,0,7.7,0c4.2,0,8.3,0,12.5,0c1,0,1.6,0.3,2.2,1.2c8,11.9,16.1,23.7,24.1,35.6
			C441.6,327.3,441.8,327.8,442.5,328.3z"/>
		<path class="st2" d="M186.2,292.3c5,13.8,9.9,27.4,15,41.2c5-13.9,9.9-27.5,14.9-41.2c-1.3,0-2.4,0-3.5,0c-1.6,0-3.2,0-4.8,0
			c-0.8,0-0.9-0.4-0.9-1c0-1,0-1.1,0.9-1.1c4,0,8,0,12,0c1.8,0,3.5,0,5.3,0c1,0,0.9,0.5,0.9,1.2c0,0.6,0,1.1-0.8,1
			c-1.7,0-3.4,0-5.1,0c-1.3,0-1.3,0-1.8,1.3c-3.3,9.5-6.7,19-10,28.5c-3.1,8.9-6.3,17.9-9.5,26.8c-0.2,0.5-0.2,1.2-0.8,1.4
			c-0.7,0.2-1.4,0.1-2.1,0c-0.5-0.1-0.5-0.7-0.7-1.1c-1.2-3.3-2.4-6.6-3.6-9.9c-5.5-15.2-11-30.4-16.5-45.6
			c-0.5-1.4-0.5-1.4-1.9-1.4c-1.6,0-3.2,0-4.8,0c-1.1,0-1.1,0-1.1-1.1c0-1.1,0-1.1,1.1-1.1c2.3,0,4.5,0,6.8,0c6,0,12,0,18.1,0
			c0.3,0,0.6,0,0.9,0c0.4,0,0.9-0.2,1.1,0.3c0.2,0.5,0.2,1.1,0,1.6c-0.1,0.4-0.6,0.3-0.9,0.3c-2.1,0-4.2,0-6.3,0
			C187.4,292.3,186.9,292.3,186.2,292.3z"/>
		<path class="st2" d="M267.2,340.7c0-2.5,0-5,0-7.5c0-1.2,0-1.2,1.2-1.2c1.3,0,1.3,0,1.7,1.3c1,4,2.9,7.7,5.7,10.8
			c5,5.5,15.5,5.6,20.6-0.7c2.5-3.1,3.3-6.6,2.3-10.4c-0.6-2.4-2.1-4.2-4.3-5.4c-3.3-1.9-6.9-3.2-10.6-4.2c-2.4-0.7-4.7-1.4-6.9-2.5
			c-7-3.4-9.6-8.9-9.3-16.5c0.1-2.1,0.5-4.1,1.3-6c2.6-5.8,7.1-8.9,13.4-9.4c4.9-0.3,9.4,0.8,13.3,3.7c0.6,0.4,0.9,0.4,1.4-0.1
			c0.6-0.7,1.2-1.3,1.9-2c0.2-0.2,0.4-0.5,0.7-0.6c1-0.6,1.8-0.1,1.8,1c0,4.7,0,9.4,0,14.1c0,1.3,0,1.3-1.4,1.3c-0.2,0-0.4,0-0.6,0
			c-0.7,0.1-0.9-0.3-1-0.9c-0.5-3.6-1.9-6.9-4.3-9.6c-3.6-4.2-8.3-5.6-13.6-4.4c-5.5,1.2-8.9,6.3-8,11.8c0.3,2.1,1.4,3.7,3.4,4.6
			c3.3,1.5,6.8,2.4,10.3,3.4c3.1,0.8,6.1,1.9,9,3.3c5,2.5,7.6,6.7,8.3,12.1c0.5,3.6,0.4,7.2-0.6,10.7c-2.1,7.5-8.6,12.6-16.5,12.9
			c-4.8,0.2-9.1-1-13-3.9c-0.5-0.4-0.9-0.5-1.4,0c-0.9,0.8-1.8,1.6-2.7,2.4c-0.2,0.2-0.4,0.4-0.7,0.6c-1,0.5-1.6,0.1-1.6-1
			C267.2,345.8,267.2,343.2,267.2,340.7z"/>
		<path class="st2" d="M239.8,319.6c0-8.4,0-16.9,0-25.3c0-0.3,0-0.6,0-0.9c0-1.1,0-1.1-1.1-1.1c-1.9,0-3.7,0-5.6,0
			c-0.3,0-0.6,0-0.9,0c-0.4,0-0.9,0.2-1.1-0.3c-0.2-0.5-0.1-1.1,0-1.6c0.1-0.2,0.3-0.3,0.5-0.3c0.4,0,0.7,0,1.1,0c8.5,0,17,0,25.4,0
			c0.2,0,0.3,0,0.5,0c0.4,0,0.9-0.2,1.1,0.3c0.2,0.5,0.2,1.1,0,1.6c-0.1,0.4-0.6,0.3-0.9,0.3c-2,0-3.9,0-5.9,0c-0.4,0-0.7,0-1.1,0
			c-0.6,0-0.8,0.2-0.8,0.8c0,0.3,0,0.6,0,0.9c0,17,0,34,0,51c0,0.2,0,0.4,0,0.6c0,1.1,0,1.1,1.1,1.1c2.1,0,4.2,0,6.3,0
			c1.3,0,1.3,0,1.3,1.3c0,0.7-0.2,1-1,1c-2.8,0-5.6,0-8.4,0c-6,0-12,0-18.1,0c-1.2,0-1.2,0-1.2-1.1c0-1.1,0-1.2,1.2-1.2
			c2.1,0,4.2,0,6.3,0c1.2,0,1.2,0,1.2-1.3C239.8,336.8,239.8,328.2,239.8,319.6z"/>
		<path class="st2" d="M318.3,319.6c0-8.3,0-16.6,0-25c0-0.3,0-0.5,0-0.8c0-1.5,0.2-1.6-1.5-1.6c-2,0-4,0-6,0
			c-0.4,0-0.9,0.2-1.1-0.2c-0.2-0.5-0.1-1.1,0-1.6c0-0.2,0.3-0.3,0.5-0.3c0.4,0,0.7,0,1.1,0c8.5,0,17,0,25.6,0c0.1,0,0.2,0,0.3,0
			c1.1,0,1.6,0.8,1.2,1.8c-0.1,0.2-0.2,0.3-0.5,0.3c-0.4,0-0.7,0-1.1,0c-2,0-3.9,0-5.9,0c-1.3,0-1.3,0-1.3,1.3c0,17.2,0,34.5,0,51.7
			c0,1.4-0.1,1.4,1.4,1.4c2.1,0,4.2,0,6.3,0c0.8,0,1,0.3,1,1.1c0,1.1,0,1.2-1,1.2c-2.5,0-4.9,0-7.4,0c-6.4,0-12.7,0-19.1,0
			c-0.4,0-0.9,0.2-1.1-0.2c-0.3-0.5-0.2-1.2,0-1.8c0.1-0.4,0.6-0.3,0.9-0.3c2.1,0,4.2,0,6.3,0c1.4,0,1.4,0,1.4-1.4
			C318.3,336.7,318.3,328.2,318.3,319.6z"/>
		<path class="st2" d="M393.1,313.7c-1.3-7.4-5-13.5-10.5-18.4c-9.5-8.5-22.9-8.6-32.1-0.7c-7.6,6.5-11.7,14.7-11.7,25.3
			c0,0.9,0,2.2,0.2,3.5c0.9,8.1,4.6,14.8,10.6,20.3c8.4,7.6,20,8.9,29.1,3C390,339.3,395.4,327.1,393.1,313.7z M380.6,332.3
			c0,2.8-0.6,5.5-1.7,8c-2,4.6-5.5,7.1-10.4,7.7c-2.6,0.3-5.1,0.1-7.6-0.6c-3-0.9-5.2-2.7-6.7-5.4c-1.6-2.9-2.3-6.1-2.4-9.4
			c-0.1-4.3,0-8.6,0-12.9c0,0,0,0,0,0c0-3.9,0-7.7,0-11.6c0-2.7,0.3-5.3,1.2-7.8c1.8-5.6,5.5-8.6,11.4-9.1c2.6-0.2,5.1,0,7.6,0.8
			c2.9,1,5,2.8,6.4,5.5c1.5,3,2.3,6.1,2.3,9.4C380.7,315.3,380.7,323.8,380.6,332.3z"/>
	</g>
	<g>
		<path class="st3" d="M53.4,345.7c-4.4,3.4-9.3,4.8-14.7,4.9c-5.4,0.1-10.2-1.4-14.5-4.6c-6.5-4.9-11.1-11.3-12.7-19.4
			c-2.5-12.9,2.2-25.8,13.5-33.3c6.1-4.1,12.9-5.1,20-3.4c2.5,0.6,4.8,1.7,6.9,3.3c0.6,0.5,1,0.5,1.5-0.1c0.7-0.8,1.4-1.5,2.1-2.3
			c0.3-0.3,0.6-0.6,1.1-0.6c1.4-0.1,1.6,0,1.6,1.4c0,4.8,0,9.5,0,14.3c0,0.4,0.2,1.1-0.2,1.2c-0.7,0.3-1.5,0.2-2.2,0
			c-0.4-0.1-0.3-0.6-0.4-0.9c-0.4-1.6-0.9-3.2-1.5-4.7c-2.2-5.7-6.6-8.5-12.3-9.7c-2.4-0.5-4.8-0.3-7.1,0.3
			c-2.9,0.7-5.3,2.4-6.9,4.9c-1.9,2.9-2.8,6.1-3.2,9.4c-0.3,2.1-0.3,4.2-0.3,6.3c0,5.4,0,10.8,0,16.2c0,3.3,0.4,6.6,1.5,9.8
			c0.5,1.4,1.1,2.7,1.9,3.9c1.7,2.6,4,4.4,6.9,5.2c3.6,1,7.1,1,10.6-0.4c3.6-1.4,6.4-3.7,8.2-7.1c1.2-2.3,2.2-4.7,2.9-7.2
			c0.1-0.4,0-1,0.6-1.1c0.7-0.1,1.4-0.1,2.1,0c0.3,0,0.2,0.5,0.2,0.8c0,1.3,0,2.5,0,3.8c0,4,0,7.9,0,11.9c0,0.5,0.3,1.1-0.4,1.5
			c-0.6,0.3-1.6,0-2.2-0.6c-0.7-0.7-1.3-1.5-2-2.3C54.2,346.6,53.8,346.2,53.4,345.7z"/>
		<path class="st3" d="M173.6,347.8c0.1-0.8-0.5-0.5-0.9-0.5c-1.3,0.1-2.7,0.3-4,0.1c-2.4-0.4-3.6-1.7-3.7-4.2c0-1.7,0-3.4-0.1-5.1
			c-0.2-3.5-0.7-7-2-10.3c-1.2-3-3.2-5.2-6-6.7c-1.2-0.7-2.4-1.2-3.7-1.6c-1.4-0.5-2.9-0.9-4.5-1.4c1.3-0.3,2.3-0.5,3.4-0.7
			c3.3-0.8,6.6-1.8,9.4-3.8c2.3-1.5,3.9-3.5,4.8-6.2c2.1-6.9-1-13.2-7.7-15.6c-0.4-0.1-0.9-0.3-1.3-0.4c-3.2-0.9-6.5-1.2-9.8-1.2
			c-9.9,0-19.9,0-29.8,0c-0.3,0-0.6,0-0.9,0c-0.2,0-0.4,0-0.5,0.2c-0.2,0.6-0.2,1.2,0,1.8c0.1,0.5,0.7,0.3,1,0.3c2.2,0,4.3,0,6.5,0
			c1.2,0,1.2,0,1.2,1.1c0,0.2,0,0.4,0,0.6c0,17,0,33.9,0,50.9c0,1.9,0.2,1.7-1.7,1.7c-2.1,0-4.1,0-6.2,0c-0.7,0-1,0.2-1,0.9
			c0,1.3,0,1.4,1.4,1.4c5.1,0,10.1,0,15.2,0c3.7,0,7.4,0,11.1,0c1.1,0,1.1,0,1.1-1.1c0-1.2,0-1.2-1.1-1.2c-2.1,0-4.1,0-6.2,0
			c-1.7,0-1.5,0.1-1.5-1.4c0-6.5,0-12.9,0-19.4c0-2.1,0-4.2,0-6.3c0-0.6,0.2-0.9,0.9-0.9c1.4,0,2.8,0,4.2,0c5.2,0.1,8.5,2.7,10,7.7
			c0.7,2.4,0.9,4.8,1.2,7.3c0.2,2.1,0.2,4.3,0.5,6.4c0.8,4.7,3.4,8,8.1,9.3c4.1,1.2,8.1,0.6,12.2-0.3
			C174.1,349.2,173.6,348.4,173.6,347.8z M146.2,316.6c-3.1,0.4-6.3,0.1-9.5,0.2c-0.8,0-0.8-0.4-0.8-1c0-3.7,0-7.4,0-11.1
			c0-3.6,0-7.2,0-10.8c0-1.1,0-1.1,1-1.1c2.8,0,5.5,0,8.3,0c1,0,2,0.1,3,0.4c2.7,0.7,4.6,2.3,5.3,5c1.1,3.9,1.2,7.9,0.3,11.9
			C152.9,313.9,150.2,316,146.2,316.6z"/>
		<path class="st3" d="M113.1,295.4c-1.8-1.5-3.8-2.4-5.9-3.1c-4.2-1.4-8.6-1.8-13-1.8c-9.3,0-18.7,0-28,0c-0.4,0-0.7,0-1.1,0
			c-0.1,0-0.4,0.1-0.4,0.2c-0.2,0.6-0.2,1.2,0,1.8c0.1,0.5,0.7,0.3,1,0.3c2.2,0,4.4,0,6.6,0c0.7,0,1.2,0.2,1,1c0,0.3,0,0.6,0,0.9
			c0,8.4,0,16.8,0,25.3c0,8.4,0,16.8,0,25.3c0,0.4,0,0.7,0,1.1c0.1,0.7-0.3,0.9-0.9,0.8c-0.3,0-0.7,0-1.1,0c-2,0-3.9,0-5.9,0
			c-0.7,0-1,0.2-0.9,0.9c0,0.2,0,0.5,0,0.8c0,0.4,0.2,0.7,0.6,0.6c0.3,0,0.5,0,0.8,0c8.9,0,17.9,0,26.8,0c1.4,0,1.4,0,1.4-1.4
			c0-0.8-0.3-0.9-1-0.9c-1.5,0-2.9,0-4.4,0c-1.2,0-2.3,0-3.5,0c-0.5,0-0.8-0.2-0.7-0.7c0-0.3,0-0.6,0-0.9c0-7.1,0-14.1,0-21.2
			c0-1.8-0.2-1.6,1.6-1.6c4.6-0.1,9.2,0.2,13.8-0.3c3.6-0.4,7.1-1.4,10.3-3.1c4.4-2.4,7-6.1,7.5-11.1
			C118.2,303.1,117.1,298.7,113.1,295.4z M104.4,313.6c-1.3,4.4-3.8,6.5-8.5,6.7c-3.4,0.2-6.9,0-10.4,0.1c-0.9,0-1-0.4-1-1.1
			c0-2.9,0-5.7,0-8.6c0-1.4,0-2.7,0-4.1c0-4.3,0-8.5,0-12.8c0-1.1,0-1.2,1.2-1.2c3.4,0,6.7,0,10.1,0c0.7,0,1.5,0.1,2.2,0.2
			c2.9,0.6,4.9,2.3,6,5.1c0.5,1.4,0.9,2.9,1,4.4C105.5,306.2,105.5,309.9,104.4,313.6z"/>
	</g>
	<g>
		<path class="st3" d="M77.6,376.5c-0.6,0.5-0.7,1.1-0.8,1.6c-1.2,3.3-2.4,6.6-3.6,9.9c-0.1,0.4-0.2,1-0.8,1
			c-0.6,0.1-1.3,0.2-1.9-0.1c-0.4-0.1-0.4-0.7-0.6-1c-1.2-3.4-2.5-6.8-3.7-10.2c-0.1-0.4-0.2-0.8-0.7-1.2c0,0.5,0,0.9,0,1.3
			c0,3.4,0,6.7,0,10.1c0,1.1,0,1.1-1.2,1.2c-0.2,0-0.4,0-0.6,0c-1.1,0-1.1,0-1.1-1.2c0-4.9,0-9.8,0-14.7c0-1.1,0-1.1,1.1-1.1
			c1,0,2.3-0.4,3.1,0.2c0.8,0.5,0.8,1.8,1.2,2.7c1.1,3.1,2.2,6.1,3.3,9.2c0.1,0.3,0.2,0.7,0.6,1c0.7-2.1,1.5-4.1,2.2-6.2
			c0.7-1.9,1.4-3.9,2-5.8c0.2-0.7,0.6-1.1,1.4-1c1,0.1,2.3-0.4,3,0.3c0.6,0.7,0.2,1.9,0.2,2.9c0,4.2,0,8.4,0,12.6
			c0,1.2,0,1.2-1.2,1.3c-0.2,0-0.4,0-0.6,0c-1,0-1.1,0-1.1-1.1c0-3.3,0-6.5,0-9.8C77.6,377.7,77.6,377.2,77.6,376.5z"/>
		<path class="st3" d="M182.5,387.3c-1.8,1.9-3.9,2.4-6.3,2c-3.1-0.5-5.3-2.4-6.3-5.4c-1-2.8-0.8-5.5,0.5-8.2
			c2.2-4.2,8.1-5.6,12-2.8c1.5,1.1,2.3,2.5,2.4,4.3c-0.7,0.2-1.4,0.1-2.1,0.1c-0.5,0-0.7-0.2-0.9-0.6c-0.7-1.9-2.2-2.6-4.1-2.7
			c-2.1-0.1-3.7,0.7-4.5,2.6c-1.3,2.6-1.3,5.3,0.1,7.8c1.3,2.5,4.7,3.3,7.2,1.8c1.2-0.8,1.7-1.9,1.9-3.3c0.1-0.5-0.2-0.7-0.7-0.7
			c-1,0-2,0-3,0c-1,0-0.8-0.6-0.8-1.2c0-0.6,0.1-1,0.9-1c1.9,0,3.7,0,5.6,0c0.6,0,0.9,0.2,0.9,0.9c0,2.4,0,4.8,0,7.2
			c0,0.5,0,0.9-0.7,0.9c-0.6,0-1.3,0.2-1.4-0.7C182.9,388,182.9,387.6,182.5,387.3z"/>
		<path class="st3" d="M30.8,377.2c-0.6,0.3-1.1,0.1-1.6,0.2c-0.9,0.1-1.4-0.2-1.8-1.1c-1.3-2.9-5.3-2.7-7-1.2
			c-0.5,0.4-0.9,0.9-1.2,1.5c-1.2,2.6-1.3,5.2,0,7.8c0.6,1.3,1.7,2.1,3.1,2.4c2.5,0.6,4.5-0.6,5.3-2.9c0.5-1.4,0.5-1.4,1.9-1.4
			c0.4,0,0.8,0,1.2,0.1c0,3.7-2.8,6.6-6.6,6.8c-4.6,0.3-8.3-2.9-8.8-7.6c-0.2-2.1,0.1-4.2,1.1-6.1c2.7-5.1,9.2-4.8,12.1-2.5
			C29.9,374.2,30.6,375.5,30.8,377.2z"/>
		<path class="st3" d="M418.7,381.7c0-2,0-4,0-6c0-1.1,0-1.1-1.1-1.1c-1.1,0-2.2,0-3.3,0c-0.8,0-1.1-0.3-1-1c0-0.3,0-0.6,0-0.9
			c0-0.5,0.3-0.7,0.7-0.7c0.2,0,0.3,0,0.5,0c3.9,0,7.7,0,11.6,0c0.4,0,1-0.2,1.2,0.3c0.2,0.7,0.2,1.4-0.1,2.1
			c-0.1,0.3-0.5,0.2-0.8,0.2c-1.1,0-2.2,0-3.3,0c-1.2,0-1.2,0-1.2,1.2c0,3.8,0,7.5,0,11.3c0,2.2,0.3,2-2,2c-1,0-1,0-1.1-1.2
			C418.6,385.8,418.7,383.8,418.7,381.7z"/>
		<path class="st3" d="M433.5,372c1.1,0,2.1-0.3,3,0.1c0.9,0.3,1.2,1.6,1.7,2.4c1,1.6,2,3.3,3,4.9c0.6-0.4,0.8-1,1.1-1.5
			c0.9-1.5,1.9-3,2.6-4.5c0.6-1.2,1.4-1.6,2.6-1.4c0.4,0.1,0.9-0.1,1.3,0.1c0.2,0.5-0.2,0.8-0.4,1.1c-1.7,2.7-3.3,5.4-5,8
			c-0.5,0.8-0.8,1.6-0.7,2.5c0.1,1.5,0,2.9,0,4.4c0,0.7-0.2,1-1,1c-2.5,0-2.1,0.1-2.1-2c0-1.6,0.3-3.3-0.1-4.8
			c-0.4-1.5-1.6-2.8-2.4-4.1c-1.1-1.7-2.1-3.4-3.2-5.1C433.8,372.8,433.5,372.5,433.5,372z"/>
		<path class="st3" d="M361.3,379.4c1.1-1.9,2.2-3.7,3.3-5.5c1.4-2.3,0.6-1.8,3.3-1.9c0.3,0,0.6,0,0.9,0.1c0,0.6-0.4,1-0.6,1.4
			c-1.6,2.6-3.1,5.1-4.8,7.6c-0.6,0.9-0.9,1.7-0.8,2.8c0.1,1.4,0,2.8,0,4.2c0,0.7-0.2,1.1-0.9,1c-0.1,0-0.3,0-0.5,0
			c-1.8,0-1.6,0-1.6-1.6c0-1.7,0.3-3.5-0.1-5.1c-0.5-1.7-1.8-3.1-2.7-4.6c-1.1-1.8-2.3-3.6-3.5-5.6c1.1-0.2,2.1-0.1,3.1-0.1
			c0.6,0,0.7,0.5,0.9,0.9c1.1,1.8,2.2,3.6,3.2,5.4C360.7,378.7,360.9,379.1,361.3,379.4z"/>
		<path class="st3" d="M210.9,381.7c0-1.9,0-3.8,0-5.7c0-1.4,0-1.4-1.5-1.4c-1.1,0-2.1,0-3.2,0c-0.6,0-0.8-0.2-0.8-0.8
			c0,0,0-0.1,0-0.2c-0.1-1.7-0.1-1.7,1.6-1.7c3.7,0,7.4,0,11.1,0c0.4,0,1-0.3,1.2,0.3c0.2,0.7,0.2,1.4-0.1,2.1
			c-0.1,0.3-0.5,0.2-0.8,0.2c-1.1,0-2.1,0-3.2,0c-1.3,0-1.3,0-1.3,1.3c0,3.5,0,6.9,0,10.4c0,0.4,0,0.8,0,1.2c0,1.6,0.1,1.6-1.5,1.6
			c-1.5,0-1.5,0-1.5-1.4C210.9,385.6,210.9,383.7,210.9,381.7z"/>
		<path class="st3" d="M397.2,380.5c0-2.5,0-4.9,0-7.4c0-1.2,0-1.2,1.1-1.2c2.2,0,1.9-0.2,1.9,1.8c0,3.6,0,7.1,0,10.7
			c0,2.3-0.3,1.9,2,2c1.9,0,3.7,0,5.6,0c1.1,0,1.1,0,1.1,1.2c0,0.2,0,0.4,0,0.6c0.1,0.7-0.3,0.9-0.9,0.8c-0.1,0-0.2,0-0.3,0
			c-3.1,0-6.2,0-9.3,0c-1.2,0-1.2,0-1.2-1.3C397.2,385.4,397.2,383,397.2,380.5z"/>
		<path class="st3" d="M310.9,380.4c0-2.5,0-4.9,0-7.4c0-0.7,0.2-1.1,1-1.1c2.4,0.1,2-0.2,2,2c0,3.7,0,7.4,0,11.1
			c0,1.3,0,1.3,1.3,1.3c2.2,0,4.3,0,6.5,0c0.4,0,0.9-0.1,0.9,0.4c0,0.7,0.3,1.4-0.2,2c-0.2,0.2-0.5,0.1-0.7,0.1c-3.3,0-6.6,0-9.9,0
			c-0.7,0-0.9-0.3-0.9-1C310.9,385.5,310.9,382.9,310.9,380.4z"/>
		<path class="st3" d="M247.4,380.5c0-2.5,0-5,0-7.5c0-0.7,0.2-1.1,1-1.1c2.4,0.1,2-0.2,2,2c0,3.8,0,7.5,0,11.3c0,1.2,0,1.2,1.2,1.2
			c2.1,0,4.2,0,6.3,0c1.2,0,1.2,0,1.2,1.3c0,0.1,0,0.2,0,0.3c0.1,0.8-0.2,1.1-1,1.1c-1.2-0.1-2.5,0-3.8,0c-2,0-4,0-6,0
			c-0.8,0-1.1-0.2-1-1C247.4,385.5,247.4,383,247.4,380.5z"/>
		<path class="st3" d="M284.5,376.2c2.4,0.1,4.2,2.1,4.1,4.5c-0.1,2.3-2.1,4.2-4.5,4c-2.4-0.1-4.3-2.2-4.1-4.5
			C280.1,377.9,282.1,376.1,284.5,376.2z"/>
		<path class="st3" d="M111.5,380.5c0,2.4-2,4.3-4.4,4.2c-2.4,0-4.3-2-4.2-4.4c0-2.3,2-4.2,4.3-4.2
			C109.5,376.2,111.5,378.2,111.5,380.5z"/>
		<path class="st3" d="M197.4,380.5c0,2.4,0,4.8,0,7.2c0,1.3,0,1.3-1.2,1.3c-2.1,0-1.8,0.1-1.8-1.7c0-4.6,0-9.2,0-13.8
			c0-1.5,0-1.5,1.4-1.5c0.2,0,0.4,0,0.6,0c0.8-0.1,1,0.3,1,1.1C197.4,375.5,197.4,378,197.4,380.5z"/>
		<path class="st3" d="M160.3,380.5c0,2.4,0,4.8,0,7.2c0,1.3,0,1.3-1.2,1.3c-2,0-1.8,0.2-1.8-1.7c0-4.6,0-9.1,0-13.7
			c0-1.9-0.1-1.6,1.7-1.7c0.2,0,0.4,0,0.6,0c0.5,0,0.7,0.3,0.7,0.7c0,1.2,0,2.4,0,3.6C160.3,377.7,160.3,379.1,160.3,380.5z"/>
		<path class="st3" d="M148.2,377.3c-0.9-3.4-3.4-5.3-6.9-5.3c-2.1,0-4.1,0-6.2,0c-1.2,0-1.3,0-1.3,1.2c0,2.5,0,4.9,0,7.4
			c0,2.5,0,5,0,7.5c0,0.5,0,1,0.8,1c2.5-0.1,5.1,0.2,7.6-0.2c3-0.4,4.9-2.1,5.8-4.9C148.8,381.8,148.8,379.5,148.2,377.3z
			 M145.2,383.2c-0.5,1.8-1.8,2.9-3.6,3.2c-1.3,0.2-2.7,0.1-4,0.1c-0.6,0-0.7-0.4-0.7-0.9c0-1.7,0-3.5,0-5.2c0-1.7,0-3.4,0-5.1
			c0-0.7,0.3-1,1-0.9c1.4,0.1,2.8-0.1,4.2,0.3c1.6,0.4,2.7,1.4,3.2,3C145.7,379.5,145.7,381.4,145.2,383.2z"/>
		<path class="st3" d="M53.3,384.6c0-1.6-0.5-3-2.3-3.7c0.4-0.3,0.7-0.5,1-0.7c1.5-1.2,1.7-2.9,1.5-4.6c-0.3-1.7-1.4-2.7-3-3.2
			c-0.9-0.3-1.8-0.4-2.7-0.4c-2.3,0-4.5,0-6.8,0c-1.4,0-1.4,0-1.4,1.4c0,4.6,0,9.2,0,13.8c0,2-0.3,1.8,1.8,1.8c1.1,0,1.2,0,1.2-1.2
			c0-1.7,0-3.3,0-5c0-0.7,0.2-1,1-1c1.2,0,2.3,0,3.5,0c2.3,0.1,3.2,1,3.4,3.3c0.1,0.8,0,1.6,0.1,2.4c0.1,1.2,0.3,1.4,1.5,1.4
			c0.6,0,1.3,0.1,1.9-0.1C53.5,387.5,53.3,386,53.3,384.6z M48.5,379.6c-1.7,0.3-3.5,0.1-5.2,0.1c-0.4,0-0.6-0.2-0.6-0.5
			c0-1.4,0-2.8,0-4.2c0-0.4,0.3-0.6,0.7-0.6c0.8,0,1.6,0,2.4,0c0,0,0,0,0,0c0.8,0,1.7-0.1,2.5,0c1.5,0.2,2.2,0.9,2.2,2.3
			C50.6,378.4,50,379.3,48.5,379.6z"/>
		<path class="st3" d="M346,377.6c-1-3.5-3.8-5.8-7.4-6c-4-0.1-6.9,1.9-8.2,5.5c-0.6,1.9-0.7,3.8-0.3,5.8c0.8,3.8,3.9,6.4,7.6,6.5
			c4,0.1,7.2-2.2,8.3-6c0.3-0.9,0.4-1.9,0.4-2.8C346.4,379.5,346.3,378.5,346,377.6z M342.7,383.9c-0.9,2-2.4,3-4.6,3
			c-2.1,0-3.6-1.1-4.5-3c-1-2.4-1-4.8,0.1-7.1c0.8-1.8,2.3-2.7,4.3-2.8c2.1-0.1,3.6,0.8,4.5,2.6c0.6,1.2,0.9,2.4,0.9,3.9
			C343.4,381.6,343.2,382.8,342.7,383.9z"/>
		<path class="st3" d="M388.9,387.3c-1.7-4.5-3.5-9-5.2-13.4c-0.9-2.3-0.3-1.8-2.8-2c-0.9,0-1.3,0.4-1.6,1.2c-1.3,3.5-2.7,7-4,10.5
			c-0.7,1.7-1.3,3.4-2,5.3c0.8,0.3,1.5,0.1,2.1,0.2c0.7,0.1,1.1-0.2,1.3-0.9c0.3-1,0.7-1.9,1-2.8c0.2-0.6,0.5-0.8,1.1-0.8
			c1.2,0,2.4,0,3.6,0c2.5,0,2.5,0,3.3,2.3c0.9,2.4,0.9,2.4,3.4,2.2c0.1,0,0.3-0.1,0.4-0.1C389.4,388.3,389.1,387.8,388.9,387.3z
			 M378.7,382.2c0.9-2.5,1.6-4.7,2.6-7.3c0.9,2.6,1.7,4.8,2.5,7.1C382.1,382.3,380.5,382.1,378.7,382.2z"/>
		<path class="st3" d="M239.3,388c-2-5.1-4-10.2-5.9-15.3c-0.2-0.5-0.5-0.8-1.1-0.8c-0.3,0-0.7,0-1.1,0c-1.4,0-1.4,0-1.8,1.2
			c-1.9,4.9-3.8,9.8-5.7,14.7c-0.1,0.3-0.3,0.6-0.2,1.1c0.7,0,1.5,0,2.3,0c0.5,0,0.7-0.3,0.8-0.7c0.3-0.8,0.5-1.5,0.8-2.3
			c0.6-1.7,0.2-1.5,2.2-1.5c0.8,0,1.5,0,2.3,0c0.9,0,2-0.3,2.8,0.2c0.8,0.5,0.8,1.8,1.2,2.7c0.8,1.9,0.3,1.6,2.4,1.7
			c0.1,0,0.2,0,0.3,0C239.6,389,239.7,388.9,239.3,388z M228.9,382.1c0.7-2.4,1.6-4.6,2.4-6.9c0.1,0,0.2,0,0.3,0
			c0.8,2.2,1.6,4.5,2.4,6.8C232.3,382.1,230.7,382.1,228.9,382.1z"/>
	</g>
	<path class="st4" d="M279.8,251c0-0.3,0.1-0.5,0.3-0.6C280.1,250.6,280.1,250.8,279.8,251z"/>
	<path class="st4" d="M279.5,251.9c0-0.3,0.1-0.5,0.3-0.7C279.8,251.5,279.8,251.7,279.5,251.9z"/>
	<g>
		<linearGradient id="SVGID_1_" gradientUnits="userSpaceOnUse" x1="361.7141" y1="205.0747" x2="299.1149" y2="285.5023">
			<stop  offset="0" style="stop-color:#CECFD0"/>
			<stop  offset="1" style="stop-color:#B3B2B3"/>
		</linearGradient>
		<path class="st5" d="M273.8,270.3c0,0,6.8-27.3,32.8-84.6c0,0,1.8-5.7,13.6-2.8c11.8,2.9,49.9,12.1,97.6,26.5
			c0,0,11.8,3.7,5.2,6.4c0,0-1,0.8-10.1,1.4C403.8,217.7,339.2,221.7,273.8,270.3z"/>
		<linearGradient id="SVGID_2_" gradientUnits="userSpaceOnUse" x1="106.3573" y1="157.0371" x2="199.3742" y2="268.9084">
			<stop  offset="0" style="stop-color:#F6D925"/>
			<stop  offset="1" style="stop-color:#F68E1E"/>
		</linearGradient>
		<path class="st6" d="M208.2,160.9c0.2-3.4,0.9-7-0.5-10.3c-0.4-1-1.1-2-2-2.7c-1.8-1.4-4.4-1.3-6.6-0.5c-2.6,0.9-4.9,2.4-7.4,3.5
			c-2.7,1.2-5.6,2.1-8.3,3.1c-3.4,1.3-6.8,2.5-10.2,3.7c-6,2.1-12.1,4.2-18.2,6.2c-8.2,2.6-16.4,5.2-24.6,7.6
			c-10.5,3.1-21.1,6.1-31.6,8.9c-13.1,3.5-26.2,6.9-39.4,10.1c-5.8,1.4-11.9,2.2-17.5,4.4c-2,0.8-5.3,2.1-5.7,4.5
			c-0.4,2,1.2,3.7,3.2,5c8.7,5.9,18.6,10.4,28,15.1c9,4.5,18.1,8.7,27.3,12.6c4,1.7,7.9,3.4,11.9,5c4.7,1.9,9.4,3.8,14.2,5.6
			c1.7,0.6,3.2,1.2,4.7,1.8c0.7,0.2,1.3,0.5,2,0.7c6.4,2.3,10.1,3.6,10.1,3.6c11.4,3.9,22.9,7.4,34.6,10.5
			c13.1,3.4,26.4,6.3,39.8,8.5c2.8,0.5,5.7,0.9,8.5,1.3c-0.4-0.1-1.2-4-1.3-4.4c-1.2-4.1-2.2-8.3-3.1-12.4
			c-1.4-6.4-2.7-12.9-3.7-19.3c-1.3-8.3-2.4-16.7-3.1-25.1c-0.9-9.9-1.3-19.8-1.3-29.7C207.8,172.4,207.9,166.6,208.2,160.9z"/>
		<linearGradient id="SVGID_3_" gradientUnits="userSpaceOnUse" x1="282.6393" y1="238.2249" x2="273.1665" y2="79.7889">
			<stop  offset="0" style="stop-color:#F6D925"/>
			<stop  offset="1" style="stop-color:#F68E1E"/>
		</linearGradient>
		<path class="st7" d="M361.2,77.4c-1.3-1.3-3.4-1.9-5.8-1.8c-0.3,0.1-1.7,0.6-6.5,3.1c-12.8,7.1-51.8,25.4-141.6,55.1
			c0,0-10,3.6-12.1,4.3c-3.6,1.2-6.5,4.4-6.6,8.3c-0.3,11.2,0.4,22.5,1.3,33.6c0.1,1,0.2,2,0.3,3c0.7,7.2,1.6,14.4,2.8,21.5
			c1.3,7.4,2.8,14.8,4.9,22c2,7,4.4,13.9,7.5,20.5c2.8,6.1,6.3,12,10.6,17.1c0.7,0.8,1.4,1.7,2.2,2.5c0-0.6-0.1-1.2-0.1-1.8
			c0-15.6,12.7-28.3,28.3-28.3s28.3,12.7,28.3,28.3c0,1.3-0.1,2.6-0.3,3.9c2.3-3.9,5.6-7.5,8.2-11.2c7.7-11.3,14.9-22.9,21.7-34.8
			c10.1-17.7,19.4-35.9,27.7-54.5c10.4-23.2,19.4-47.1,26.8-71.4c1.3-4.1,2.5-8.2,3.6-12.4C363.3,81.3,362.7,78.9,361.2,77.4z"/>
		<path class="st8" d="M320.2,182.8c-11.8-2.9-13.6,2.8-13.6,2.8c-21.6,47.7-30,74.5-32.2,82.3c0,0.3-0.1,0.6-0.1,1
			c2.3-3.9,5.6-7.5,8.2-11.2c7.7-11.3,14.9-22.9,21.7-34.8c7.3-12.7,14.1-25.7,20.5-39C322.9,183.5,321.4,183.1,320.2,182.8z"/>
		<path class="st9" d="M215.9,252.3c-1.4-6.4-2.7-12.9-3.7-19.3c-1.3-8.3-2.4-16.7-3.1-25.1c-0.9-9.9-1.3-19.8-1.3-29.7
			c0-5.7,0.2-11.5,0.5-17.2c0.2-3.4,0.9-7-0.5-10.3c-0.4-1-1.1-2-2-2.7c-1.8-1.4-4.4-1.3-6.6-0.5c-2.6,0.9-4.9,2.4-7.4,3.5
			c-1.1,0.5-2.2,0.9-3.2,1.3c0,9.3,0.6,18.7,1.4,28c0.1,1,0.2,2,0.3,3c0.7,7.2,1.6,14.4,2.8,21.5c1.3,7.4,2.8,14.8,4.9,22
			c2,7,4.4,13.9,7.5,20.5c2.8,6.1,6.3,12,10.6,17.1c0.7,0.8,1.4,1.7,2.2,2.5c0-0.6-0.1-1.2-0.1-1.8c0-1.2,0.1-2.3,0.2-3.4
			C217.4,258.5,216.6,255.4,215.9,252.3z"/>
	</g>
</g>
</svg>
